<svg xmlns="http://www.w3.org/2000/svg" xmlns:xlink="http://www.w3.org/1999/xlink" width="512" height="512" viewBox="0 0 512 512"><rect width="512" height="512" fill="#ff6b9d"/><g transform="translate(-27.90243902439022 28.878048780487802) scale(4.7317073170731705)"><g fill="none" stroke="#2c2233" stroke-width="3.6" stroke-linecap="round" stroke-linejoin="round" color="#2c2233"><path class="fur" d="M34 40 L41 12 L62 33 Z" fill="#fff0f6"/><path class="fur" d="M86 40 L79 12 L58 33 Z" fill="#fff0f6"/><path class="bones-accent" d="M41 19 L45 32 L53 28 Z" stroke="none" fill="#e5427f"/><path class="bones-accent" d="M79 19 L75 32 L67 28 Z" stroke="none" fill="#e5427f"/><ellipse class="fur" cx="60" cy="56" rx="32" ry="29" fill="#fff0f6"/><circle cx="50" cy="54" r="3.4" fill="currentColor" stroke="none"/><circle cx="70" cy="54" r="3.4" fill="currentColor" stroke="none"/><path class="bones-accent" d="M57 64 L63 64 L60 68 Z" stroke="none" fill="#e5427f"/><path d="M60 68 q-5 6 -10 3 M60 68 q5 6 10 3" stroke-width="2.4"/><path d="M30 60 L46 62 M30 68 L46 67" stroke-width="2"/><path d="M90 60 L74 62 M90 68 L74 67" stroke-width="2"/></g></g></svg>
